<?xml version="1.0" standalone="no"?>
<!DOCTYPE svg PUBLIC "-//W3C//DTD SVG 20010904//EN"
 "http://www.w3.org/TR/2001/REC-SVG-20010904/DTD/svg10.dtd">
<svg version="1.0" xmlns="http://www.w3.org/2000/svg"
 width="285px" height="133px" viewBox="0 0 3400.000000 1543.000000"
 preserveAspectRatio="xMidYMid meet">
<metadata>
Created by potrace 1.15, written by Peter Selinger 2001-2017
</metadata>
<g transform="translate(0.000000,1543.000000) scale(0.100000,-0.100000)"
 stroke="none">
 <g fill="#383838">
<path  d="M24350 13315 l0 -115 205 0 205 0 0 -1925 0 -1925 -215 0 -215 0 0
-120 0 -120 560 0 560 0 0 120 0 120 -220 0 -220 0 0 2040 0 2040 -330 0 -330
0 0 -115z"/>
<path d="M2000 13030 l0 -120 230 0 230 0 0 -1780 0 -1780 -230 0 -230 0 0
-120 0 -120 580 0 580 0 0 120 0 120 -225 0 -225 0 0 1548 c0 852 -3 1591 -6
1643 l-5 94 33 -51 c18 -28 141 -190 274 -360 245 -314 329 -424 1113 -1452
244 -320 447 -582 451 -582 11 0 1450 1869 1730 2247 74 100 135 181 135 180
0 -1 -1 -737 -3 -1634 l-3 -1633 -214 0 -215 0 0 -120 0 -120 580 0 580 0 0
120 0 120 -240 0 -240 0 0 1780 0 1780 235 0 235 0 0 120 0 120 -307 0 -308 0
-210 -273 c-115 -149 -439 -571 -719 -937 -726 -948 -1029 -1340 -1036 -1340
-4 0 -21 21 -39 46 -19 25 -184 240 -369 477 -184 238 -539 698 -787 1022
-248 325 -523 683 -611 797 l-159 208 -302 0 -303 0 0 -120z"/>
<path d="M31090 11980 l0 -700 -250 0 -250 0 0 -125 0 -125 250 0 250 0 0
-960 0 -960 365 0 365 0 0 120 0 120 -240 0 -240 0 0 840 0 840 330 0 330 0 0
125 0 125 -330 0 -330 0 0 700 0 700 -125 0 -125 0 0 -700z"/>
<path d="M8521 12220 c-85 -36 -125 -102 -119 -196 3 -52 9 -70 35 -101 45
-57 85 -76 155 -76 49 0 66 5 101 29 115 80 115 245 -1 324 -38 27 -130 37
-171 20z"/>
<path d="M14075 12214 c-75 -41 -107 -92 -108 -173 0 -66 18 -105 67 -149 68
-59 148 -64 229 -12 55 34 81 86 81 160 1 65 -21 108 -77 153 -31 26 -48 32
-100 34 -43 2 -71 -2 -92 -13z"/>
<path d="M26811 12220 c-85 -36 -125 -102 -119 -196 3 -52 9 -70 35 -101 45
-57 85 -76 155 -76 49 0 66 5 101 29 115 80 115 245 -1 324 -38 27 -130 37
-171 20z"/>
<path d="M11380 11301 c-286 -63 -524 -231 -665 -469 l-43 -73 -6 38 c-3 21
-8 106 -11 188 -3 83 -8 183 -11 223 l-6 72 -309 0 -309 0 0 -120 0 -120 210
0 210 0 0 -845 0 -845 -225 0 -225 0 0 -120 0 -120 560 0 560 0 0 120 0 120
-216 0 -215 0 4 528 c4 564 5 577 58 697 121 275 426 475 763 500 98 8 209
-12 293 -51 75 -35 162 -123 202 -202 62 -122 61 -113 61 -824 l0 -648 -225 0
-225 0 0 -120 0 -120 560 0 560 0 0 120 0 120 -210 0 -210 0 0 689 c0 733 -2
770 -49 889 -66 167 -205 297 -382 357 -76 26 -99 29 -249 32 -133 2 -181 -1
-250 -16z"/>
<path d="M16977 11304 c-311 -56 -569 -240 -714 -509 l-33 -60 0 55 c0 30 -5
153 -12 273 l-11 217 -309 0 -308 0 0 -120 0 -120 210 0 210 0 0 -845 0 -845
-225 0 -225 0 0 -120 0 -120 560 0 560 0 0 120 0 120 -216 0 -215 0 3 538 c4
532 4 538 27 607 84 253 279 440 556 535 68 23 218 50 283 50 70 0 191 -29
256 -62 117 -59 220 -202 245 -342 7 -39 11 -284 11 -693 l0 -633 -225 0 -225
0 0 -120 0 -120 560 0 560 0 0 120 0 120 -210 0 -210 0 0 505 c0 418 3 519 16
583 72 361 431 633 839 636 133 1 221 -23 311 -83 101 -67 183 -201 203 -331
7 -40 11 -307 11 -687 l0 -623 -225 0 -225 0 0 -120 0 -120 560 0 560 0 0 120
0 120 -215 0 -215 0 0 690 c0 764 -1 778 -63 915 -73 160 -199 272 -372 331
-149 50 -406 45 -590 -13 -243 -77 -454 -243 -572 -451 l-31 -54 -12 54 c-58
249 -245 432 -492 482 -95 20 -284 20 -391 0z"/>
<path d="M21729 11310 c-484 -87 -857 -461 -934 -935 -59 -360 61 -725 322
-976 105 -101 181 -155 306 -214 317 -152 684 -150 1002 5 159 78 303 206 380
341 l25 44 0 -232 0 -233 325 0 325 0 0 120 0 120 -210 0 -210 0 0 965 0 965
-104 0 -103 0 -6 -82 c-4 -46 -10 -154 -13 -241 l-7 -157 -40 66 c-88 147
-256 287 -437 365 -155 67 -224 81 -410 85 -91 1 -186 -1 -211 -6z m461 -268
c301 -99 530 -353 595 -661 19 -90 19 -274 1 -361 -73 -344 -353 -621 -694
-686 -98 -19 -264 -18 -360 2 -456 93 -768 547 -688 1001 33 189 109 344 234
475 90 94 196 167 305 209 131 50 186 58 357 55 142 -3 163 -6 250 -34z"/>
<path d="M28914 11291 c-248 -68 -421 -253 -454 -488 -23 -162 10 -312 92
-414 75 -93 228 -182 403 -234 337 -100 471 -175 526 -297 33 -74 34 -220 2
-291 -33 -71 -124 -161 -204 -201 -101 -50 -183 -62 -343 -48 -133 11 -212 32
-286 73 l-40 23 0 148 0 148 -115 0 -115 0 0 -219 0 -219 31 -26 c73 -62 204
-117 359 -151 118 -26 379 -32 476 -10 198 43 358 166 444 341 83 169 93 383
25 532 -73 160 -222 262 -540 372 -327 113 -437 190 -466 328 -13 65 -2 157
27 219 67 139 251 213 466 185 103 -13 178 -35 221 -64 l27 -19 0 -150 0 -149
110 0 110 0 0 219 0 219 -37 32 c-52 46 -162 96 -278 126 -140 36 -339 43
-441 15z"/>
<path d="M8020 11160 l0 -120 220 0 220 0 0 -845 0 -845 -220 0 -220 0 0 -120
0 -120 560 0 560 0 0 120 0 120 -215 0 -215 0 0 965 0 965 -345 0 -345 0 0
-120z"/>
<path d="M13590 11160 l0 -120 220 0 220 0 0 -845 0 -845 -220 0 -220 0 0
-120 0 -120 555 0 555 0 0 120 0 120 -210 0 -210 0 0 965 0 965 -345 0 -345 0
0 -120z"/>
<path  d="M26310 11160 l0 -120 220 0 220 0 0 -845 0 -845 -220 0 -220 0 0
-120 0 -120 560 0 560 0 0 120 0 120 -215 0 -215 0 0 965 0 965 -345 0 -345 0
0 -120z"/>
</g>
<path fill="#4F5CA2" d="M23150 8360 l0 -280 975 0 c536 0 975 -2 975 -5 0 -2 -457 -582
-1015 -1287 l-1015 -1283 0 -197 0 -198 1340 0 1340 0 0 585 0 585 -190 0
-190 0 0 -385 0 -385 -897 0 c-852 0 -895 1 -881 18 8 9 466 587 1016 1284
l1002 1267 0 195 0 196 -1030 0 -1030 0 0 85 0 85 -200 0 -200 0 0 -280z"/>
<path fill="#4F5CA2" d="M14161 8322 c-68 -163 -309 -731 -536 -1262 -227 -531 -468 -1099
-536 -1262 l-124 -297 -197 -1 -198 0 0 -195 0 -195 535 0 535 0 0 195 0 195
-134 0 -134 0 67 158 c37 86 127 298 200 470 l133 312 521 0 522 0 196 -468
195 -467 -133 -3 -133 -3 0 -194 0 -195 535 0 535 0 0 195 0 195 -194 0 -194
0 -32 78 c-113 270 -345 818 -625 1472 -178 416 -400 938 -494 1160 -94 223
-174 406 -178 407 -4 1 -64 -131 -132 -295z m153 -684 c9 -32 87 -224 172
-428 86 -204 154 -373 152 -376 -3 -2 -161 -3 -351 -2 l-346 3 123 305 c68
168 142 350 165 406 22 56 44 116 47 133 8 41 18 31 38 -41z"/>
<path fill="#4F5CA2" d="M3510 8499 c-201 -23 -356 -71 -555 -169 -478 -238 -811 -669 -927
-1200 -20 -93 -22 -133 -22 -345 0 -211 2 -252 22 -342 48 -222 136 -428 263
-619 90 -135 291 -339 429 -437 180 -127 417 -230 643 -279 90 -20 131 -22
342 -22 264 0 346 11 540 75 126 41 352 156 465 236 122 87 316 281 403 403
80 113 194 339 236 467 233 720 -51 1523 -689 1949 -346 230 -747 329 -1150
283z m460 -409 c247 -50 475 -174 660 -360 200 -199 329 -449 375 -729 27
-160 17 -387 -24 -545 -35 -138 -120 -321 -201 -434 -190 -268 -489 -465 -810
-533 -145 -31 -373 -31 -510 -1 -398 87 -728 338 -908 689 -107 210 -145 369
-146 608 0 234 34 386 133 590 198 406 603 690 1056 739 82 9 274 -3 375 -24z"/>
<path fill="#4F5CA2" d="M10790 8489 c-274 -34 -516 -125 -760 -286 -157 -104 -356 -303 -459
-458 -127 -192 -216 -402 -263 -621 -21 -97 -23 -135 -23 -349 1 -210 3 -253
23 -342 148 -679 660 -1190 1338 -1335 97 -20 135 -23 344 -23 205 1 248 4
333 23 141 31 295 85 425 148 l112 54 0 625 0 625 -450 0 -450 0 0 -195 0
-195 250 0 250 0 -2 -312 -3 -311 -55 -19 c-181 -61 -457 -81 -642 -44 -532
103 -948 523 -1054 1063 -24 119 -24 376 0 488 119 561 546 983 1079 1070 259
42 521 2 765 -117 48 -24 90 -43 94 -43 6 0 142 192 215 301 13 21 11 23 -50
57 -142 80 -346 151 -522 182 -107 19 -390 28 -495 14z"/>
<path fill="#4F5CA2" d="M6140 8275 l0 -195 105 0 105 0 0 -1290 0 -1290 -105 0 -105 0 0
-195 0 -195 580 0 580 0 0 195 0 195 -270 0 -270 0 0 555 0 555 198 0 197 0
352 -747 352 -748 356 -3 355 -2 0 195 0 195 -227 2 -227 3 -263 560 c-145
308 -263 562 -263 565 0 4 35 16 77 29 143 42 295 132 381 225 67 73 137 188
170 279 45 125 62 229 62 387 0 241 -54 385 -210 553 -162 177 -404 295 -708
348 -104 17 -164 19 -668 19 l-554 0 0 -195z m1280 -224 c188 -56 343 -176
414 -321 46 -94 55 -172 32 -280 -36 -169 -129 -286 -289 -365 -153 -75 -172
-78 -514 -83 l-303 -4 0 542 0 542 293 -4 c267 -4 299 -6 367 -27z"/>
<path fill="#4F5CA2" d="M16720 8275 l0 -195 210 0 210 0 0 -1290 0 -1290 -210 0 -210 0 0
-195 0 -195 585 0 585 0 0 195 0 195 -170 0 -170 0 -1 1008 c0 554 -4 1041 -8
1082 -4 41 -7 76 -6 77 1 2 17 -20 36 -47 20 -28 588 -638 1265 -1357 l1229
-1306 3 1562 2 1561 210 0 210 0 0 195 0 195 -585 0 -585 0 0 -195 0 -195 170
0 169 0 3 -1092 c2 -616 7 -1102 12 -1113 5 -11 -14 9 -41 45 -28 36 -567 624
-1198 1308 l-1147 1242 -284 0 -284 0 0 -195z"/>
<path fill="#4F5CA2" d="M21200 8275 l0 -195 185 0 185 0 0 -1290 0 -1290 -185 0 -185 0 0
-195 0 -195 580 0 580 0 0 195 0 195 -190 0 -190 0 0 1290 0 1290 190 0 190 0
0 195 0 195 -580 0 -580 0 0 -195z"/>
<path fill="#4F5CA2" d="M26460 8275 l0 -195 135 0 135 0 0 -1290 0 -1290 -135 0 -135 0 0
-195 0 -195 1205 0 1205 0 0 375 0 375 -195 0 -195 0 0 -180 0 -180 -670 0
-670 0 0 555 0 555 735 0 735 0 0 195 0 195 -735 0 -735 0 0 540 0 540 635 0
635 0 0 -175 0 -175 195 0 195 0 0 370 0 370 -1170 0 -1170 0 0 -195z"/>
<path fill="#4F5CA2" d="M29580 8275 l0 -195 105 0 105 0 0 -1290 0 -1290 -105 0 -105 0 0
-195 0 -195 580 0 580 0 0 195 0 195 -270 0 -270 0 0 555 0 555 198 0 197 -1
351 -747 351 -747 351 -3 352 -2 0 195 0 195 -222 0 -223 0 -266 568 -266 567
66 18 c96 26 256 108 328 167 125 104 227 272 273 450 31 121 39 345 16 461
-63 316 -360 588 -755 689 -181 46 -244 50 -823 50 l-548 0 0 -195z m1265
-219 c33 -10 102 -37 153 -62 203 -98 338 -302 317 -479 -30 -243 -179 -410
-435 -486 -69 -20 -101 -23 -377 -26 l-303 -5 0 542 0 542 293 -5 c237 -3 303
-7 352 -21z"/>
<path fill="#945A30" d="M16281 4269 c-68 -27 -151 -129 -151 -186 0 -20 -3 -24 -9 -14 -13
21 -25 -8 -60 -145 -54 -216 -90 -482 -91 -669 0 -60 -4 -77 -27 -110 -40 -60
-94 -125 -104 -125 -29 0 9 168 67 301 56 126 40 181 -52 181 -44 0 -49 -5
-74 -68 l-19 -49 -1 38 c-1 84 -45 137 -113 137 -84 0 -159 -75 -207 -208 -35
-96 -60 -193 -60 -233 0 -35 -51 -127 -93 -167 l-34 -33 -31 37 c-36 44 -43
80 -47 271 -4 183 -20 223 -88 223 -39 0 -120 -90 -200 -224 -22 -38 -43 -64
-45 -58 -2 6 6 67 17 135 26 153 27 213 5 221 -9 3 -35 6 -60 6 -38 0 -45 -4
-58 -29 -9 -16 -18 -64 -22 -108 l-7 -79 -67 -56 c-60 -50 -147 -104 -155 -96
-2 2 3 32 11 68 28 132 15 205 -46 265 -24 23 -40 48 -40 62 0 45 -94 81 -132
51 -36 -29 -141 -219 -172 -311 -9 -27 -21 -83 -28 -125 -9 -64 -16 -81 -46
-114 -39 -43 -78 -50 -107 -18 -16 18 -17 32 -12 122 4 57 13 132 21 168 18
82 10 100 -45 100 -78 0 -101 -31 -126 -168 -32 -185 24 -320 141 -339 48 -8
77 1 129 41 l45 34 6 -39 c13 -81 99 -143 173 -124 40 9 134 110 166 178 18
39 36 61 54 69 97 40 133 60 173 95 l46 41 -8 -82 c-11 -130 15 -196 78 -196
29 0 50 28 145 195 l74 130 6 -125 c5 -112 9 -133 38 -202 43 -102 76 -131
140 -123 25 4 70 18 98 31 44 21 59 36 95 94 40 64 44 67 62 54 24 -17 83 -18
123 -3 15 5 54 36 86 67 l57 56 0 -53 c0 -91 42 -151 106 -151 25 0 41 11 80
54 27 29 57 66 68 81 l19 27 22 -45 c35 -74 69 -111 129 -141 66 -34 103 -31
164 13 48 35 124 154 159 248 35 96 37 108 19 122 -27 22 -53 -3 -76 -76 -22
-68 -84 -176 -120 -208 -14 -13 -28 -16 -53 -11 -72 13 -87 63 -87 281 0 172
4 205 26 205 17 0 76 89 105 158 11 26 33 67 49 92 99 155 175 505 122 553
-21 19 -110 22 -151 6z m100 -154 c-23 -130 -63 -241 -143 -395 -44 -85 -82
-157 -85 -160 -12 -11 11 120 34 200 14 47 36 126 49 175 14 50 34 109 45 132
24 51 102 140 107 124 2 -6 -1 -41 -7 -76z m-681 -713 c4 -51 7 -57 27 -56 19
0 22 -3 16 -25 -12 -51 -21 -67 -83 -141 -110 -133 -131 -138 -105 -24 38 166
110 332 134 309 3 -4 8 -32 11 -63z m-1266 16 c21 -30 21 -135 0 -210 l-17
-58 -39 0 c-42 0 -88 34 -88 67 0 16 82 184 103 211 14 17 24 15 41 -10z m-82
-338 c16 0 28 -2 28 -5 0 -35 -80 -145 -104 -145 -7 0 -21 9 -31 20 -15 17
-17 31 -12 85 4 36 9 70 12 75 3 5 22 1 43 -10 20 -11 49 -20 64 -20z"/>
<path fill="#945A30" d="M22097 4260 c-29 -23 -53 -95 -107 -310 -44 -176 -47 -185 -77 -199
-15 -7 -44 -26 -65 -43 -30 -24 -38 -36 -36 -57 4 -37 30 -37 72 0 20 17 38
30 40 28 4 -4 -3 -51 -44 -329 -5 -36 -10 -89 -10 -119 0 -43 -6 -64 -29 -100
-34 -53 -98 -118 -107 -108 -12 11 27 172 63 257 19 47 40 102 46 122 15 51
-1 84 -49 97 -53 15 -84 -3 -106 -59 -15 -39 -17 -41 -17 -17 -1 36 -24 90
-50 116 -55 55 -177 4 -233 -96 -43 -76 -89 -219 -95 -295 -3 -38 -7 -68 -8
-68 -1 0 -23 7 -50 16 -37 13 -68 15 -142 11 l-95 -7 16 23 c8 12 40 58 70
103 29 44 86 120 125 169 82 102 98 147 61 177 -27 22 -68 23 -97 3 -12 -8
-61 -22 -110 -31 -195 -35 -238 -47 -241 -72 -6 -40 18 -39 241 4 28 6 28 5
-22 -63 -27 -37 -84 -121 -125 -187 -83 -129 -93 -169 -56 -206 22 -22 37 -24
75 -10 14 5 68 17 120 26 87 15 98 15 151 -1 62 -18 84 -15 84 12 1 16 2 16
12 -2 27 -49 51 -65 96 -65 60 0 101 22 161 85 l51 54 -6 -40 c-13 -81 44
-169 110 -169 35 0 76 37 136 122 l33 47 19 -39 c33 -66 70 -90 137 -90 68 0
97 18 141 88 l28 45 6 -30 c9 -40 58 -97 100 -117 54 -26 97 -20 155 19 45 30
53 32 57 17 24 -82 83 -142 138 -142 70 0 147 69 210 185 28 54 36 61 90 82
33 13 87 44 119 69 l59 46 -7 -94 c-5 -79 -3 -98 12 -127 24 -46 45 -58 79
-46 21 8 47 43 112 155 46 80 88 149 93 155 5 5 9 -34 9 -101 0 -120 14 -179
66 -274 33 -61 61 -74 132 -60 93 17 131 48 194 155 113 191 144 290 90 290
-19 0 -28 -10 -46 -55 -33 -81 -114 -220 -149 -257 l-31 -33 -24 23 c-46 43
-52 67 -58 248 -3 94 -10 183 -15 197 -21 54 -57 74 -103 56 -22 -8 -116 -126
-170 -214 -54 -87 -56 -81 -26 90 33 194 28 213 -57 208 -42 -3 -50 -7 -62
-33 -8 -16 -17 -63 -21 -104 l-8 -75 -58 -52 c-59 -53 -151 -111 -160 -101 -3
3 0 25 7 48 6 24 12 80 12 124 1 90 -14 130 -63 167 -21 15 -30 30 -30 49 0
20 -9 33 -34 48 -74 46 -104 26 -192 -129 -60 -105 -99 -214 -110 -308 -5 -50
-13 -69 -41 -102 -28 -32 -41 -40 -69 -40 -27 0 -36 6 -49 30 -17 33 -16 57
12 242 8 59 13 114 10 122 -8 21 -85 21 -115 0 -27 -19 -40 -47 -58 -129 -15
-70 -83 -223 -111 -247 -16 -14 -22 -15 -43 -5 -41 20 -54 62 -53 162 0 71 43
385 69 502 3 16 22 31 67 51 104 47 149 80 145 105 -5 34 -31 31 -98 -12 -73
-47 -93 -51 -85 -18 34 150 48 205 70 282 31 112 31 139 3 159 -30 21 -50 20
-81 -4z m-493 -821 c3 -17 3 -41 0 -53 -6 -25 18 -51 40 -43 25 10 -10 -81
-50 -130 -69 -84 -132 -148 -139 -141 -20 19 60 298 102 361 14 20 29 37 33
37 4 0 10 -14 14 -31z m1276 -40 c15 -36 8 -144 -13 -204 -12 -34 -19 -40 -45
-43 -37 -4 -67 10 -88 43 -15 23 -13 28 37 122 29 54 56 103 61 110 14 18 35
5 48 -28z m-155 -299 c22 -11 52 -20 67 -20 15 0 28 -3 28 -7 0 -20 -63 -114
-85 -129 -21 -14 -28 -14 -41 -3 -27 22 -32 51 -21 117 5 34 10 62 11 62 1 0
19 -9 41 -20z"/>
<path fill="#945A30" d="M12220 4142 c-40 -20 -73 -73 -91 -147 -7 -27 -18 -63 -25 -80 -7
-16 -17 -56 -23 -88 -6 -32 -13 -62 -16 -67 -8 -12 -43 -263 -51 -362 l-6 -88
-66 -55 c-63 -55 -139 -101 -149 -92 -2 3 1 25 8 48 7 24 12 80 13 124 0 90
-15 130 -64 167 -21 15 -30 30 -30 49 0 32 -51 69 -94 69 -37 0 -63 -29 -129
-145 -74 -133 -107 -233 -113 -349 -7 -118 -9 -129 -40 -165 -31 -37 -74 -41
-104 -11 -29 29 -35 67 -20 145 23 127 23 137 -2 174 -17 26 -41 42 -98 65
-41 16 -77 31 -79 32 -2 2 3 14 11 26 19 30 56 141 64 196 14 90 -40 182 -107
182 -59 0 -96 -25 -129 -87 -17 -32 -27 -47 -24 -33 4 14 13 48 21 75 8 28 17
102 19 165 6 132 -5 167 -66 208 -50 34 -109 27 -183 -22 -58 -39 -191 -203
-256 -316 -17 -30 -31 -50 -31 -44 0 6 11 67 26 135 39 193 39 194 15 218 -37
37 -110 20 -134 -32 -26 -55 -56 -183 -83 -361 -14 -94 -48 -310 -75 -481 -60
-368 -70 -496 -45 -524 22 -25 61 -34 85 -21 25 13 36 48 61 199 12 69 23 128
25 132 3 4 19 91 35 194 35 213 66 308 162 498 68 134 155 257 215 305 49 39
67 40 89 7 25 -38 14 -108 -42 -275 -62 -188 -129 -321 -168 -335 -25 -8 -31
-6 -52 18 -13 16 -24 39 -24 51 0 52 -73 61 -86 11 -23 -91 71 -184 185 -185
94 0 163 69 251 251 l50 104 0 -71 c0 -135 44 -217 159 -292 53 -36 56 -40 52
-72 -8 -57 -7 -183 1 -212 10 -34 52 -83 102 -119 59 -44 116 -41 188 10 l55
38 31 -33 c37 -39 67 -49 120 -39 48 9 127 88 173 175 32 60 38 66 93 87 33
13 86 43 118 68 l57 45 -1 -193 c-1 -225 14 -405 44 -500 17 -56 29 -75 72
-113 57 -52 82 -64 131 -64 49 0 99 47 126 118 27 72 37 243 19 335 -23 116
-112 319 -161 363 -20 18 -19 18 63 41 46 12 84 23 84 23 1 0 3 -35 6 -77 4
-63 11 -92 39 -147 41 -84 74 -106 162 -106 74 0 127 26 189 94 38 40 48 47
48 31 0 -11 11 -43 24 -72 19 -39 35 -58 73 -80 41 -24 58 -28 125 -28 69 0
80 3 119 30 26 19 55 53 76 90 29 53 34 57 39 37 17 -62 50 -106 97 -130 91
-47 196 -39 262 19 50 44 97 149 103 231 4 59 1 74 -27 134 -17 36 -56 103
-87 147 -57 80 -94 153 -112 218 -12 45 4 88 42 108 24 14 28 13 48 -7 19 -18
20 -25 10 -47 -7 -14 -12 -39 -12 -55 0 -23 4 -30 20 -30 29 0 60 56 60 108 0
55 -21 95 -63 121 -68 42 -146 20 -203 -55 -27 -35 -29 -44 -29 -123 l0 -86
69 -130 c38 -71 82 -154 98 -183 54 -103 28 -223 -60 -271 -39 -21 -48 -22
-83 -12 -65 20 -83 67 -58 152 9 30 9 42 -1 54 -15 18 -46 20 -53 3 -3 -7 -6
-4 -6 7 -2 34 -48 122 -117 223 -77 113 -128 230 -119 273 6 27 47 69 66 69 5
0 18 -9 29 -20 18 -18 18 -22 5 -60 -16 -46 -11 -70 16 -70 25 0 50 42 56 94
10 85 -51 156 -134 156 -49 0 -97 -30 -137 -88 -26 -36 -30 -51 -30 -106 0
-59 6 -76 62 -188 33 -68 74 -148 90 -178 52 -97 55 -106 49 -165 -7 -74 -33
-114 -89 -143 -41 -21 -51 -23 -81 -13 -57 19 -71 42 -63 103 4 29 9 65 10 79
2 15 12 43 24 63 26 43 28 69 8 85 -17 14 -56 -1 -56 -22 0 -36 -198 -287
-226 -287 -31 0 -79 48 -91 89 -23 78 -4 119 114 243 98 103 128 195 83 258
-52 73 -143 72 -220 -3 -55 -54 -85 -101 -119 -190 -26 -70 -28 -72 -76 -89
-70 -23 -129 -31 -170 -24 -28 6 -35 12 -35 30 0 25 7 38 117 228 101 174 144
306 145 443 0 110 -9 144 -48 180 -32 30 -83 33 -134 7z m116 -108 c24 -129
-45 -357 -156 -514 -23 -32 -1 109 45 295 57 232 95 306 111 219z m-596 -635
c15 -35 9 -145 -11 -204 -10 -29 -20 -41 -38 -43 -39 -6 -69 7 -91 38 l-21 29
47 88 c66 124 72 133 88 127 8 -3 20 -19 26 -35z m499 -388 c71 -136 93 -219
94 -356 2 -110 0 -124 -23 -170 -21 -42 -29 -50 -50 -47 -42 5 -96 71 -109
133 -17 87 -30 334 -24 469 l6 124 33 -38 c18 -21 51 -73 73 -115z m-652 89
c21 -11 50 -20 65 -20 16 0 28 -3 28 -7 0 -16 -58 -109 -79 -128 -17 -15 -26
-17 -39 -9 -32 20 -41 54 -30 122 6 34 12 62 14 62 2 0 21 -9 41 -20z"/>
<path fill="#945A30" d="M17680 4111 c-237 -75 -362 -406 -364 -961 -1 -170 1 -191 23 -255
44 -129 123 -178 250 -157 76 13 159 64 192 120 33 56 123 287 148 379 12 45
27 121 35 170 l13 88 16 -55 c20 -67 69 -127 146 -179 31 -21 55 -44 53 -51
-10 -45 -12 -183 -3 -218 13 -48 49 -93 105 -133 57 -42 115 -40 184 6 48 33
111 113 112 141 0 7 20 1 48 -13 51 -27 97 -27 150 0 l30 14 -30 -111 c-17
-61 -39 -147 -50 -191 -31 -129 -118 -395 -150 -458 -36 -73 -104 -142 -152
-155 -73 -21 -148 24 -192 114 -58 119 -18 262 101 360 47 38 50 39 126 39 72
0 79 -2 99 -27 43 -55 88 -24 55 38 -20 38 -47 50 -131 59 -80 9 -128 -6 -198
-61 -104 -82 -152 -215 -128 -356 29 -166 124 -258 266 -258 83 1 135 26 210
103 115 119 197 299 251 547 64 292 91 387 149 525 33 78 34 119 2 140 -14 9
-37 15 -53 13 -24 -3 -34 -15 -74 -93 -65 -124 -142 -191 -195 -171 -24 9 -13
99 20 164 27 53 82 122 97 122 4 0 2 -21 -6 -47 -21 -68 -19 -83 9 -83 17 0
28 9 39 33 38 83 28 166 -23 192 -67 34 -123 7 -206 -100 -53 -68 -71 -105
-84 -175 -11 -58 -62 -169 -97 -210 -37 -45 -92 -40 -118 11 -19 36 -19 83 1
170 26 113 5 150 -108 194 -40 15 -75 29 -77 31 -2 2 3 14 11 26 19 29 55 140
63 196 28 180 -153 251 -236 93 -23 -44 -29 -51 -34 -35 -15 46 -25 64 -56 98
-56 64 -138 95 -191 72 -46 -19 -127 -93 -134 -122 -7 -27 10 -54 34 -54 8 0
41 25 73 55 37 35 63 53 73 49 8 -3 22 -28 32 -56 14 -44 15 -64 5 -167 -16
-162 -40 -270 -105 -473 -48 -151 -61 -180 -87 -203 -26 -21 -38 -25 -63 -19
-42 9 -44 10 -62 52 -25 57 -28 205 -10 437 31 386 112 638 223 690 34 16 37
16 61 -2 25 -19 33 -36 46 -96 6 -24 11 -28 34 -25 26 3 27 5 30 72 2 49 -1
75 -13 92 -30 46 -132 82 -185 65z"/>
<path fill="#945A30" d="M13891 3624 c-30 -38 -26 -65 13 -103 43 -42 60 -36 87 25 23 54 18
81 -18 95 -40 15 -60 11 -82 -17z"/>
<path fill="#945A30" d="M20522 3627 c-32 -33 -28 -67 11 -105 42 -41 62 -35 88 26 23 52 17
79 -18 93 -38 14 -58 11 -81 -14z"/>
<path fill="#945A30" d="M22330 3630 c-31 -31 -26 -76 12 -111 18 -16 35 -29 38 -29 24 1 60
65 60 108 0 49 -72 70 -110 32z"/>
<path fill="#945A30" d="M19254 3541 c-74 -45 -131 -150 -175 -320 -23 -91 -24 -133 -3 -177
22 -45 50 -64 97 -64 56 0 96 21 155 81 l52 54 0 -54 c0 -91 42 -151 105 -151
34 0 89 47 134 114 l26 39 10 -41 c17 -69 58 -97 104 -72 10 5 52 69 94 142
112 197 106 193 107 63 0 -122 12 -174 61 -265 38 -72 63 -84 137 -70 96 18
131 47 202 168 l43 73 17 -39 c24 -53 79 -93 135 -99 84 -10 176 68 259 220
51 94 54 127 11 127 -20 0 -32 -15 -71 -87 -81 -149 -142 -195 -187 -145 -22
25 -22 125 1 259 11 60 14 109 9 118 -9 17 -78 21 -108 5 -29 -16 -49 -63 -64
-152 -12 -63 -26 -102 -71 -182 -31 -55 -70 -116 -87 -133 l-31 -33 -27 26
c-15 15 -32 38 -38 53 -6 14 -14 108 -19 208 -7 162 -10 186 -28 210 -42 56
-85 44 -157 -44 -30 -38 -76 -102 -102 -143 l-47 -75 5 45 c3 25 13 100 23
168 22 147 19 156 -54 160 -72 4 -81 -13 -97 -181 -8 -86 -19 -145 -30 -168
-24 -46 -114 -159 -127 -159 -28 0 21 202 81 330 28 62 28 115 -1 134 -29 18
-56 22 -90 13 -21 -5 -31 -19 -47 -60 l-20 -52 0 38 c-1 49 -23 100 -52 121
-31 21 -97 20 -135 -3z m126 -139 c4 -51 7 -57 27 -56 19 0 22 -3 16 -25 -13
-54 -24 -73 -94 -155 -106 -125 -122 -124 -89 6 34 133 69 229 96 266 14 18
29 30 32 27 4 -4 9 -32 12 -63z"/>
</g>
</svg>
